<?xml version="1.0" encoding="UTF-8"?>
<svg width="16px" height="16px" viewBox="0 0 16 16" version="1.1" xmlns="http://www.w3.org/2000/svg" xmlns:xlink="http://www.w3.org/1999/xlink">
    <!-- Generator: Sketch 54.1 (76490) - https://sketchapp.com -->
    <title>省会城市</title>
    <desc>Created with Sketch.</desc>
    <g id="省会城市" stroke="none" stroke-width="1" fill="none" fill-rule="evenodd">
        <g fill-rule="nonzero" id="编组">
            <g>
                <rect id="矩形" fill="#000000" opacity="0" x="0" y="0" width="16" height="16"></rect>
                <path d="M12.174122,10.0185834 L12.174122,10.0185834 C11.6004309,10.8526099 10.7818499,11.5183346 9.82520252,11.8856215 C9.74493694,11.9201581 9.68745591,11.9621617 9.63371634,12.0196267 L7.98093292,13.7030293 L6.32063461,12.0196267 C6.25942811,11.9545188 6.18666144,11.9048245 6.1138628,11.8819121 C5.16129264,11.5069503 4.34645309,10.8526259 3.77648753,10.0185994 C2.41445098,8.02144147 2.66680789,5.27837327 4.38490702,3.56435138 C5.30310048,2.64612594 6.5729915,2.07224303 7.98094891,2.07224303 C9.37766594,2.07224303 10.6516182,2.64612594 11.5698276,3.56435138 C13.2838336,5.27835728 13.5365102,8.02142547 12.174122,10.0185834 L12.174122,10.0185834 Z" id="路径" fill="#FFFFFF"></path>
                <path d="M12.3312794,2.79915817 C11.2140848,1.68572108 9.67591173,1.00098533 7.98093292,1.00098533 C6.27471373,1.00098533 4.73652462,1.68572108 3.62716478,2.79915817 C1.53838897,4.88419252 1.23979142,8.20509295 2.89260681,10.6193121 C3.56595828,11.6063869 4.51478697,12.3868977 5.62820808,12.8460104 L7.59081344,14.8354935 L7.59081344,14.8431523 L7.59864812,14.858438 C7.80884161,15.0650659 8.1570855,15.0650659 8.35978008,14.8431523 L10.3227532,12.8460104 C11.439564,12.3868977 12.3883927,11.6064029 13.0617601,10.6193121 C14.7145595,8.20509295 14.4163297,4.88419252 12.3312794,2.79915817 L12.3312794,2.79915817 Z M12.174122,10.0185834 L12.174122,10.0185834 C11.6004309,10.8526099 10.7818499,11.5183346 9.82520252,11.8856215 C9.74493694,11.9201581 9.68745591,11.9621617 9.63371634,12.0196267 L7.98093292,13.7030293 L6.32063461,12.0196267 C6.25942811,11.9545188 6.18666144,11.9048245 6.1138628,11.8819121 C5.16129264,11.5069503 4.34645309,10.8526259 3.77648753,10.0185994 C2.41445098,8.02144147 2.66680789,5.27837327 4.38490702,3.56435138 C5.30310048,2.64612594 6.5729915,2.07224303 7.98094891,2.07224303 C9.37766594,2.07224303 10.6516182,2.64612594 11.5698276,3.56435138 C13.2838336,5.27835728 13.5365102,8.02142547 12.174122,10.0185834 L12.174122,10.0185834 Z M10.4758014,4.63933453 L10.4758014,4.63933453 C9.84052012,3.99658631 8.95289794,3.59868009 7.98094892,3.59868009 C6.99772755,3.59868009 6.1138788,3.99658631 5.47113058,4.63933453 C4.82838236,5.27835728 4.43455337,6.16204612 4.43455337,7.14539542 C4.43455337,8.12092602 4.82838236,9.0085482 5.47113058,9.64755495 C6.1138788,10.2903032 6.99772755,10.684292 7.98094892,10.684292 C8.95289794,10.684292 9.84052012,10.2903032 10.4758014,9.64755495 C11.1222911,9.0085482 11.5164239,8.120926 11.5164239,7.14539542 C11.5164239,6.1736063 11.129742,5.29365891 10.498586,4.65089469 L10.4758014,4.63933453 L10.4758014,4.63933453 Z M10.0203822,9.1921677 L10.0203822,9.1921677 C9.49635348,9.71640427 8.77672939,10.033901 7.98093294,10.033901 C7.17391209,10.033901 6.45051456,9.71642027 5.93022731,9.1921677 C5.40989209,8.66420566 5.08104306,7.94120786 5.08104306,7.14541141 C5.08104306,6.34568163 5.40987611,5.61878245 5.93022731,5.09470578 C6.45051456,4.57438656 7.17763756,4.24536164 7.98093294,4.24536164 C8.77672939,4.24536164 9.4963375,4.57437058 10.0203822,5.09470578 L10.0394413,5.11002339 C10.5519578,5.63408408 10.8695824,6.35334042 10.8695824,7.14541139 C10.8695984,7.94119188 10.5444908,8.66420567 10.0203822,9.1921677 L10.0203822,9.1921677 Z" id="形状" fill="#764476"></path>
            </g>
        </g>
    </g>
</svg>